<svg xmlns="http://www.w3.org/2000/svg" version="1.2" viewBox="0 0 24 24"><rect x="0" y="0" width="1" height="1" shape-rendering="crispEdges" fill="#FF4C3B"/><rect x="1" y="0" width="1" height="1" shape-rendering="crispEdges" fill="#FF4C3B"/><rect x="2" y="0" width="1" height="1" shape-rendering="crispEdges" fill="#FF4C3B"/><rect x="3" y="0" width="1" height="1" shape-rendering="crispEdges" fill="#FF4C3B"/><rect x="4" y="0" width="1" height="1" shape-rendering="crispEdges" fill="#FF4C3B"/><rect x="5" y="0" width="1" height="1" shape-rendering="crispEdges" fill="#FF4C3B"/><rect x="6" y="0" width="1" height="1" shape-rendering="crispEdges" fill="#FF4C3B"/><rect x="7" y="0" width="1" height="1" shape-rendering="crispEdges" fill="#FF4C3B"/><rect x="8" y="0" width="1" height="1" shape-rendering="crispEdges" fill="#FF4C3B"/><rect x="9" y="0" width="1" height="1" shape-rendering="crispEdges" fill="#FF4C3B"/><rect x="10" y="0" width="1" height="1" shape-rendering="crispEdges" fill="#FF4C3B"/><rect x="11" y="0" width="1" height="1" shape-rendering="crispEdges" fill="#FF4C3B"/><rect x="12" y="0" width="1" height="1" shape-rendering="crispEdges" fill="#FF4C3B"/><rect x="13" y="0" width="1" height="1" shape-rendering="crispEdges" fill="#FF4C3B"/><rect x="14" y="0" width="1" height="1" shape-rendering="crispEdges" fill="#FF4C3B"/><rect x="15" y="0" width="1" height="1" shape-rendering="crispEdges" fill="#FF4C3B"/><rect x="16" y="0" width="1" height="1" shape-rendering="crispEdges" fill="#FF4C3B"/><rect x="17" y="0" width="1" height="1" shape-rendering="crispEdges" fill="#FF4C3B"/><rect x="18" y="0" width="1" height="1" shape-rendering="crispEdges" fill="#FF4C3B"/><rect x="19" y="0" width="1" height="1" shape-rendering="crispEdges" fill="#FF4C3B"/><rect x="20" y="0" width="1" height="1" shape-rendering="crispEdges" fill="#FF4C3B"/><rect x="21" y="0" width="1" height="1" shape-rendering="crispEdges" fill="#FF4C3B"/><rect x="22" y="0" width="1" height="1" shape-rendering="crispEdges" fill="#FF4C3B"/><rect x="23" y="0" width="1" height="1" shape-rendering="crispEdges" fill="#FF4C3B"/><rect x="0" y="1" width="1" height="1" shape-rendering="crispEdges" fill="#FF4C3B"/><rect x="1" y="1" width="1" height="1" shape-rendering="crispEdges" fill="#FF4C3B"/><rect x="2" y="1" width="1" height="1" shape-rendering="crispEdges" fill="#FF4C3B"/><rect x="3" y="1" width="1" height="1" shape-rendering="crispEdges" fill="#FF4C3B"/><rect x="4" y="1" width="1" height="1" shape-rendering="crispEdges" fill="#FF4C3B"/><rect x="5" y="1" width="1" height="1" shape-rendering="crispEdges" fill="#FF4C3B"/><rect x="6" y="1" width="1" height="1" shape-rendering="crispEdges" fill="#FF4C3B"/><rect x="7" y="1" width="1" height="1" shape-rendering="crispEdges" fill="#FF4C3B"/><rect x="8" y="1" width="1" height="1" shape-rendering="crispEdges" fill="#FF4C3B"/><rect x="9" y="1" width="1" height="1" shape-rendering="crispEdges" fill="#FF4C3B"/><rect x="10" y="1" width="1" height="1" shape-rendering="crispEdges" fill="#FF4C3B"/><rect x="11" y="1" width="1" height="1" shape-rendering="crispEdges" fill="#FF4C3B"/><rect x="12" y="1" width="1" height="1" shape-rendering="crispEdges" fill="#FF4C3B"/><rect x="13" y="1" width="1" height="1" shape-rendering="crispEdges" fill="#FF4C3B"/><rect x="14" y="1" width="1" height="1" shape-rendering="crispEdges" fill="#FF4C3B"/><rect x="15" y="1" width="1" height="1" shape-rendering="crispEdges" fill="#FF4C3B"/><rect x="16" y="1" width="1" height="1" shape-rendering="crispEdges" fill="#FF4C3B"/><rect x="17" y="1" width="1" height="1" shape-rendering="crispEdges" fill="#FF4C3B"/><rect x="18" y="1" width="1" height="1" shape-rendering="crispEdges" fill="#FF4C3B"/><rect x="19" y="1" width="1" height="1" shape-rendering="crispEdges" fill="#FF4C3B"/><rect x="20" y="1" width="1" height="1" shape-rendering="crispEdges" fill="#FF4C3B"/><rect x="21" y="1" width="1" height="1" shape-rendering="crispEdges" fill="#FF4C3B"/><rect x="22" y="1" width="1" height="1" shape-rendering="crispEdges" fill="#FF4C3B"/><rect x="23" y="1" width="1" height="1" shape-rendering="crispEdges" fill="#FF4C3B"/><rect x="0" y="2" width="1" height="1" shape-rendering="crispEdges" fill="#FF4C3B"/><rect x="1" y="2" width="1" height="1" shape-rendering="crispEdges" fill="#FF4C3B"/><rect x="2" y="2" width="1" height="1" shape-rendering="crispEdges" fill="#FF4C3B"/><rect x="3" y="2" width="1" height="1" shape-rendering="crispEdges" fill="#FF4C3B"/><rect x="4" y="2" width="1" height="1" shape-rendering="crispEdges" fill="#FF4C3B"/><rect x="5" y="2" width="1" height="1" shape-rendering="crispEdges" fill="#FF4C3B"/><rect x="6" y="2" width="1" height="1" shape-rendering="crispEdges" fill="#FF4C3B"/><rect x="7" y="2" width="1" height="1" shape-rendering="crispEdges" fill="#FF4C3B"/><rect x="8" y="2" width="1" height="1" shape-rendering="crispEdges" fill="#FF4C3B"/><rect x="9" y="2" width="1" height="1" shape-rendering="crispEdges" fill="#FF4C3B"/><rect x="10" y="2" width="1" height="1" shape-rendering="crispEdges" fill="#FF4C3B"/><rect x="11" y="2" width="1" height="1" shape-rendering="crispEdges" fill="#FF4C3B"/><rect x="12" y="2" width="1" height="1" shape-rendering="crispEdges" fill="#FF4C3B"/><rect x="13" y="2" width="1" height="1" shape-rendering="crispEdges" fill="#FF4C3B"/><rect x="14" y="2" width="1" height="1" shape-rendering="crispEdges" fill="#FF4C3B"/><rect x="15" y="2" width="1" height="1" shape-rendering="crispEdges" fill="#FF4C3B"/><rect x="16" y="2" width="1" height="1" shape-rendering="crispEdges" fill="#FF4C3B"/><rect x="17" y="2" width="1" height="1" shape-rendering="crispEdges" fill="#FF4C3B"/><rect x="18" y="2" width="1" height="1" shape-rendering="crispEdges" fill="#FF4C3B"/><rect x="19" y="2" width="1" height="1" shape-rendering="crispEdges" fill="#FF4C3B"/><rect x="20" y="2" width="1" height="1" shape-rendering="crispEdges" fill="#FF4C3B"/><rect x="21" y="2" width="1" height="1" shape-rendering="crispEdges" fill="#FF4C3B"/><rect x="22" y="2" width="1" height="1" shape-rendering="crispEdges" fill="#FF4C3B"/><rect x="23" y="2" width="1" height="1" shape-rendering="crispEdges" fill="#FF4C3B"/><rect x="0" y="3" width="1" height="1" shape-rendering="crispEdges" fill="#FF4C3B"/><rect x="1" y="3" width="1" height="1" shape-rendering="crispEdges" fill="#FF4C3B"/><rect x="2" y="3" width="1" height="1" shape-rendering="crispEdges" fill="#FF4C3B"/><rect x="3" y="3" width="1" height="1" shape-rendering="crispEdges" fill="#FF4C3B"/><rect x="4" y="3" width="1" height="1" shape-rendering="crispEdges" fill="#FF4C3B"/><rect x="5" y="3" width="1" height="1" shape-rendering="crispEdges" fill="#FF4C3B"/><rect x="6" y="3" width="1" height="1" shape-rendering="crispEdges" fill="#FF4C3B"/><rect x="7" y="3" width="1" height="1" shape-rendering="crispEdges" fill="#FF4C3B"/><rect x="8" y="3" width="1" height="1" shape-rendering="crispEdges" fill="#FF4C3B"/><rect x="9" y="3" width="1" height="1" shape-rendering="crispEdges" fill="#FF4C3B"/><rect x="10" y="3" width="1" height="1" shape-rendering="crispEdges" fill="#FF4C3B"/><rect x="11" y="3" width="1" height="1" shape-rendering="crispEdges" fill="#FF4C3B"/><rect x="12" y="3" width="1" height="1" shape-rendering="crispEdges" fill="#FF4C3B"/><rect x="13" y="3" width="1" height="1" shape-rendering="crispEdges" fill="#FF4C3B"/><rect x="14" y="3" width="1" height="1" shape-rendering="crispEdges" fill="#FF4C3B"/><rect x="15" y="3" width="1" height="1" shape-rendering="crispEdges" fill="#FF4C3B"/><rect x="16" y="3" width="1" height="1" shape-rendering="crispEdges" fill="#FF4C3B"/><rect x="17" y="3" width="1" height="1" shape-rendering="crispEdges" fill="#FF4C3B"/><rect x="18" y="3" width="1" height="1" shape-rendering="crispEdges" fill="#FF4C3B"/><rect x="19" y="3" width="1" height="1" shape-rendering="crispEdges" fill="#FF4C3B"/><rect x="20" y="3" width="1" height="1" shape-rendering="crispEdges" fill="#FF4C3B"/><rect x="21" y="3" width="1" height="1" shape-rendering="crispEdges" fill="#FF4C3B"/><rect x="22" y="3" width="1" height="1" shape-rendering="crispEdges" fill="#FF4C3B"/><rect x="23" y="3" width="1" height="1" shape-rendering="crispEdges" fill="#FF4C3B"/><rect x="0" y="4" width="1" height="1" shape-rendering="crispEdges" fill="#FF4C3B"/><rect x="1" y="4" width="1" height="1" shape-rendering="crispEdges" fill="#FF4C3B"/><rect x="2" y="4" width="1" height="1" shape-rendering="crispEdges" fill="#FF4C3B"/><rect x="3" y="4" width="1" height="1" shape-rendering="crispEdges" fill="#FF4C3B"/><rect x="4" y="4" width="1" height="1" shape-rendering="crispEdges" fill="#FF4C3B"/><rect x="5" y="4" width="1" height="1" shape-rendering="crispEdges" fill="#FF4C3B"/><rect x="6" y="4" width="1" height="1" shape-rendering="crispEdges" fill="#FF4C3B"/><rect x="7" y="4" width="1" height="1" shape-rendering="crispEdges" fill="#FF4C3B"/><rect x="8" y="4" width="1" height="1" shape-rendering="crispEdges" fill="#FF4C3B"/><rect x="9" y="4" width="1" height="1" shape-rendering="crispEdges" fill="#FF4C3B"/><rect x="10" y="4" width="1" height="1" shape-rendering="crispEdges" fill="#FF4C3B"/><rect x="11" y="4" width="1" height="1" shape-rendering="crispEdges" fill="#FF4C3B"/><rect x="12" y="4" width="1" height="1" shape-rendering="crispEdges" fill="#FF4C3B"/><rect x="13" y="4" width="1" height="1" shape-rendering="crispEdges" fill="#FF4C3B"/><rect x="14" y="4" width="1" height="1" shape-rendering="crispEdges" fill="#FF4C3B"/><rect x="15" y="4" width="1" height="1" shape-rendering="crispEdges" fill="#FF4C3B"/><rect x="16" y="4" width="1" height="1" shape-rendering="crispEdges" fill="#FF4C3B"/><rect x="17" y="4" width="1" height="1" shape-rendering="crispEdges" fill="#FF4C3B"/><rect x="18" y="4" width="1" height="1" shape-rendering="crispEdges" fill="#FF4C3B"/><rect x="19" y="4" width="1" height="1" shape-rendering="crispEdges" fill="#FF4C3B"/><rect x="20" y="4" width="1" height="1" shape-rendering="crispEdges" fill="#FF4C3B"/><rect x="21" y="4" width="1" height="1" shape-rendering="crispEdges" fill="#FF4C3B"/><rect x="22" y="4" width="1" height="1" shape-rendering="crispEdges" fill="#FF4C3B"/><rect x="23" y="4" width="1" height="1" shape-rendering="crispEdges" fill="#FF4C3B"/><rect x="0" y="5" width="1" height="1" shape-rendering="crispEdges" fill="#FD483D"/><rect x="1" y="5" width="1" height="1" shape-rendering="crispEdges" fill="#FE483D"/><rect x="2" y="5" width="1" height="1" shape-rendering="crispEdges" fill="#FD483D"/><rect x="3" y="5" width="1" height="1" shape-rendering="crispEdges" fill="#FE483D"/><rect x="4" y="5" width="1" height="1" shape-rendering="crispEdges" fill="#FD483D"/><rect x="5" y="5" width="1" height="1" shape-rendering="crispEdges" fill="#FE483D"/><rect x="6" y="5" width="1" height="1" shape-rendering="crispEdges" fill="#FD483D"/><rect x="7" y="5" width="1" height="1" shape-rendering="crispEdges" fill="#FE483D"/><rect x="8" y="5" width="1" height="1" shape-rendering="crispEdges" fill="#FD483D"/><rect x="9" y="5" width="1" height="1" shape-rendering="crispEdges" fill="#8119B7"/><rect x="10" y="5" width="1" height="1" shape-rendering="crispEdges" fill="#8119B7"/><rect x="11" y="5" width="1" height="1" shape-rendering="crispEdges" fill="#8119B7"/><rect x="12" y="5" width="1" height="1" shape-rendering="crispEdges" fill="#8119B7"/><rect x="13" y="5" width="1" height="1" shape-rendering="crispEdges" fill="#8119B7"/><rect x="14" y="5" width="1" height="1" shape-rendering="crispEdges" fill="#8119B7"/><rect x="15" y="5" width="1" height="1" shape-rendering="crispEdges" fill="#8119B7"/><rect x="16" y="5" width="1" height="1" shape-rendering="crispEdges" fill="#FD483D"/><rect x="17" y="5" width="1" height="1" shape-rendering="crispEdges" fill="#FE483D"/><rect x="18" y="5" width="1" height="1" shape-rendering="crispEdges" fill="#FD483D"/><rect x="19" y="5" width="1" height="1" shape-rendering="crispEdges" fill="#FE483D"/><rect x="20" y="5" width="1" height="1" shape-rendering="crispEdges" fill="#FD483D"/><rect x="21" y="5" width="1" height="1" shape-rendering="crispEdges" fill="#FE483D"/><rect x="22" y="5" width="1" height="1" shape-rendering="crispEdges" fill="#FD483D"/><rect x="23" y="5" width="1" height="1" shape-rendering="crispEdges" fill="#FE483D"/><rect x="0" y="6" width="1" height="1" shape-rendering="crispEdges" fill="#FA4140"/><rect x="1" y="6" width="1" height="1" shape-rendering="crispEdges" fill="#FB4240"/><rect x="2" y="6" width="1" height="1" shape-rendering="crispEdges" fill="#FA4240"/><rect x="3" y="6" width="1" height="1" shape-rendering="crispEdges" fill="#FB4240"/><rect x="4" y="6" width="1" height="1" shape-rendering="crispEdges" fill="#FA4140"/><rect x="5" y="6" width="1" height="1" shape-rendering="crispEdges" fill="#FB4240"/><rect x="6" y="6" width="1" height="1" shape-rendering="crispEdges" fill="#FA4240"/><rect x="7" y="6" width="1" height="1" shape-rendering="crispEdges" fill="#FB4240"/><rect x="8" y="6" width="1" height="1" shape-rendering="crispEdges" fill="#8119B7"/><rect x="9" y="6" width="1" height="1" shape-rendering="crispEdges" fill="#8119B7"/><rect x="10" y="6" width="1" height="1" shape-rendering="crispEdges" fill="#8119B7"/><rect x="11" y="6" width="1" height="1" shape-rendering="crispEdges" fill="#8119B7"/><rect x="12" y="6" width="1" height="1" shape-rendering="crispEdges" fill="#8119B7"/><rect x="13" y="6" width="1" height="1" shape-rendering="crispEdges" fill="#8119B7"/><rect x="14" y="6" width="1" height="1" shape-rendering="crispEdges" fill="#B261DC"/><rect x="15" y="6" width="1" height="1" shape-rendering="crispEdges" fill="#8119B7"/><rect x="16" y="6" width="1" height="1" shape-rendering="crispEdges" fill="#8119B7"/><rect x="17" y="6" width="1" height="1" shape-rendering="crispEdges" fill="#FB4240"/><rect x="18" y="6" width="1" height="1" shape-rendering="crispEdges" fill="#FA4240"/><rect x="19" y="6" width="1" height="1" shape-rendering="crispEdges" fill="#FB4240"/><rect x="20" y="6" width="1" height="1" shape-rendering="crispEdges" fill="#FA4140"/><rect x="21" y="6" width="1" height="1" shape-rendering="crispEdges" fill="#FB4240"/><rect x="22" y="6" width="1" height="1" shape-rendering="crispEdges" fill="#FA4240"/><rect x="23" y="6" width="1" height="1" shape-rendering="crispEdges" fill="#FB4240"/><rect x="0" y="7" width="1" height="1" shape-rendering="crispEdges" fill="#F83C43"/><rect x="1" y="7" width="1" height="1" shape-rendering="crispEdges" fill="#F93C44"/><rect x="2" y="7" width="1" height="1" shape-rendering="crispEdges" fill="#F83C43"/><rect x="3" y="7" width="1" height="1" shape-rendering="crispEdges" fill="#F93C44"/><rect x="4" y="7" width="1" height="1" shape-rendering="crispEdges" fill="#F83C43"/><rect x="5" y="7" width="1" height="1" shape-rendering="crispEdges" fill="#F93C44"/><rect x="6" y="7" width="1" height="1" shape-rendering="crispEdges" fill="#F83C43"/><rect x="7" y="7" width="1" height="1" shape-rendering="crispEdges" fill="#8119B7"/><rect x="8" y="7" width="1" height="1" shape-rendering="crispEdges" fill="#8119B7"/><rect x="9" y="7" width="1" height="1" shape-rendering="crispEdges" fill="#8119B7"/><rect x="10" y="7" width="1" height="1" shape-rendering="crispEdges" fill="#8119B7"/><rect x="11" y="7" width="1" height="1" shape-rendering="crispEdges" fill="#8119B7"/><rect x="12" y="7" width="1" height="1" shape-rendering="crispEdges" fill="#8119B7"/><rect x="13" y="7" width="1" height="1" shape-rendering="crispEdges" fill="#8119B7"/><rect x="14" y="7" width="1" height="1" shape-rendering="crispEdges" fill="#8119B7"/><rect x="15" y="7" width="1" height="1" shape-rendering="crispEdges" fill="#B261DC"/><rect x="16" y="7" width="1" height="1" shape-rendering="crispEdges" fill="#8119B7"/><rect x="17" y="7" width="1" height="1" shape-rendering="crispEdges" fill="#F93C44"/><rect x="18" y="7" width="1" height="1" shape-rendering="crispEdges" fill="#F83C43"/><rect x="19" y="7" width="1" height="1" shape-rendering="crispEdges" fill="#F93C44"/><rect x="20" y="7" width="1" height="1" shape-rendering="crispEdges" fill="#F83C43"/><rect x="21" y="7" width="1" height="1" shape-rendering="crispEdges" fill="#F93C44"/><rect x="22" y="7" width="1" height="1" shape-rendering="crispEdges" fill="#F83C43"/><rect x="23" y="7" width="1" height="1" shape-rendering="crispEdges" fill="#F93C44"/><rect x="0" y="8" width="1" height="1" shape-rendering="crispEdges" fill="#F53546"/><rect x="1" y="8" width="1" height="1" shape-rendering="crispEdges" fill="#F53546"/><rect x="2" y="8" width="1" height="1" shape-rendering="crispEdges" fill="#F53546"/><rect x="3" y="8" width="1" height="1" shape-rendering="crispEdges" fill="#F53546"/><rect x="4" y="8" width="1" height="1" shape-rendering="crispEdges" fill="#F53546"/><rect x="5" y="8" width="1" height="1" shape-rendering="crispEdges" fill="#F53546"/><rect x="6" y="8" width="1" height="1" shape-rendering="crispEdges" fill="#F53546"/><rect x="7" y="8" width="1" height="1" shape-rendering="crispEdges" fill="#8119B7"/><rect x="8" y="8" width="1" height="1" shape-rendering="crispEdges" fill="#8119B7"/><rect x="9" y="8" width="1" height="1" shape-rendering="crispEdges" fill="#8119B7"/><rect x="10" y="8" width="1" height="1" shape-rendering="crispEdges" fill="#8119B7"/><rect x="11" y="8" width="1" height="1" shape-rendering="crispEdges" fill="#8119B7"/><rect x="12" y="8" width="1" height="1" shape-rendering="crispEdges" fill="#8119B7"/><rect x="13" y="8" width="1" height="1" shape-rendering="crispEdges" fill="#8119B7"/><rect x="14" y="8" width="1" height="1" shape-rendering="crispEdges" fill="#8119B7"/><rect x="15" y="8" width="1" height="1" shape-rendering="crispEdges" fill="#8119B7"/><rect x="16" y="8" width="1" height="1" shape-rendering="crispEdges" fill="#8119B7"/><rect x="17" y="8" width="1" height="1" shape-rendering="crispEdges" fill="#8119B7"/><rect x="18" y="8" width="1" height="1" shape-rendering="crispEdges" fill="#8119B7"/><rect x="19" y="8" width="1" height="1" shape-rendering="crispEdges" fill="#8119B7"/><rect x="20" y="8" width="1" height="1" shape-rendering="crispEdges" fill="#F53546"/><rect x="21" y="8" width="1" height="1" shape-rendering="crispEdges" fill="#F53546"/><rect x="22" y="8" width="1" height="1" shape-rendering="crispEdges" fill="#F53546"/><rect x="23" y="8" width="1" height="1" shape-rendering="crispEdges" fill="#F53546"/><rect x="0" y="9" width="1" height="1" shape-rendering="crispEdges" fill="#F33049"/><rect x="1" y="9" width="1" height="1" shape-rendering="crispEdges" fill="#F3304A"/><rect x="2" y="9" width="1" height="1" shape-rendering="crispEdges" fill="#F33049"/><rect x="3" y="9" width="1" height="1" shape-rendering="crispEdges" fill="#F3304A"/><rect x="4" y="9" width="1" height="1" shape-rendering="crispEdges" fill="#F33049"/><rect x="5" y="9" width="1" height="1" shape-rendering="crispEdges" fill="#F3304A"/><rect x="6" y="9" width="1" height="1" shape-rendering="crispEdges" fill="#F33049"/><rect x="7" y="9" width="1" height="1" shape-rendering="crispEdges" fill="#8119B7"/><rect x="8" y="9" width="1" height="1" shape-rendering="crispEdges" fill="#8119B7"/><rect x="9" y="9" width="1" height="1" shape-rendering="crispEdges" fill="#8119B7"/><rect x="10" y="9" width="1" height="1" shape-rendering="crispEdges" fill="#8119B7"/><rect x="11" y="9" width="1" height="1" shape-rendering="crispEdges" fill="#8119B7"/><rect x="12" y="9" width="1" height="1" shape-rendering="crispEdges" fill="#8119B7"/><rect x="13" y="9" width="1" height="1" shape-rendering="crispEdges" fill="#8119B7"/><rect x="14" y="9" width="1" height="1" shape-rendering="crispEdges" fill="#8119B7"/><rect x="15" y="9" width="1" height="1" shape-rendering="crispEdges" fill="#8119B7"/><rect x="16" y="9" width="1" height="1" shape-rendering="crispEdges" fill="#8119B7"/><rect x="17" y="9" width="1" height="1" shape-rendering="crispEdges" fill="#8119B7"/><rect x="18" y="9" width="1" height="1" shape-rendering="crispEdges" fill="#8119B7"/><rect x="19" y="9" width="1" height="1" shape-rendering="crispEdges" fill="#8119B7"/><rect x="20" y="9" width="1" height="1" shape-rendering="crispEdges" fill="#8119B7"/><rect x="21" y="9" width="1" height="1" shape-rendering="crispEdges" fill="#F3304A"/><rect x="22" y="9" width="1" height="1" shape-rendering="crispEdges" fill="#F33049"/><rect x="23" y="9" width="1" height="1" shape-rendering="crispEdges" fill="#F3304A"/><rect x="0" y="10" width="1" height="1" shape-rendering="crispEdges" fill="#F0294C"/><rect x="1" y="10" width="1" height="1" shape-rendering="crispEdges" fill="#F0294C"/><rect x="2" y="10" width="1" height="1" shape-rendering="crispEdges" fill="#F0294C"/><rect x="3" y="10" width="1" height="1" shape-rendering="crispEdges" fill="#F0294C"/><rect x="4" y="10" width="1" height="1" shape-rendering="crispEdges" fill="#F0294C"/><rect x="5" y="10" width="1" height="1" shape-rendering="crispEdges" fill="#F0294C"/><rect x="6" y="10" width="1" height="1" shape-rendering="crispEdges" fill="#F0294C"/><rect x="7" y="10" width="1" height="1" shape-rendering="crispEdges" fill="#000000"/><rect x="8" y="10" width="1" height="1" shape-rendering="crispEdges" fill="#EAD9D9"/><rect x="9" y="10" width="1" height="1" shape-rendering="crispEdges" fill="#EAD9D9"/><rect x="10" y="10" width="1" height="1" shape-rendering="crispEdges" fill="#EAD9D9"/><rect x="11" y="10" width="1" height="1" shape-rendering="crispEdges" fill="#EAD9D9"/><rect x="12" y="10" width="1" height="1" shape-rendering="crispEdges" fill="#EAD9D9"/><rect x="13" y="10" width="1" height="1" shape-rendering="crispEdges" fill="#EAD9D9"/><rect x="14" y="10" width="1" height="1" shape-rendering="crispEdges" fill="#EAD9D9"/><rect x="15" y="10" width="1" height="1" shape-rendering="crispEdges" fill="#EAD9D9"/><rect x="16" y="10" width="1" height="1" shape-rendering="crispEdges" fill="#000000"/><rect x="17" y="10" width="1" height="1" shape-rendering="crispEdges" fill="#F0294C"/><rect x="18" y="10" width="1" height="1" shape-rendering="crispEdges" fill="#F0294C"/><rect x="19" y="10" width="1" height="1" shape-rendering="crispEdges" fill="#F0294C"/><rect x="20" y="10" width="1" height="1" shape-rendering="crispEdges" fill="#F0294C"/><rect x="21" y="10" width="1" height="1" shape-rendering="crispEdges" fill="#F0294C"/><rect x="22" y="10" width="1" height="1" shape-rendering="crispEdges" fill="#F0294C"/><rect x="23" y="10" width="1" height="1" shape-rendering="crispEdges" fill="#F0294C"/><rect x="0" y="11" width="1" height="1" shape-rendering="crispEdges" fill="#EE234F"/><rect x="1" y="11" width="1" height="1" shape-rendering="crispEdges" fill="#EE2450"/><rect x="2" y="11" width="1" height="1" shape-rendering="crispEdges" fill="#EE2350"/><rect x="3" y="11" width="1" height="1" shape-rendering="crispEdges" fill="#EE2450"/><rect x="4" y="11" width="1" height="1" shape-rendering="crispEdges" fill="#EE234F"/><rect x="5" y="11" width="1" height="1" shape-rendering="crispEdges" fill="#EE2450"/><rect x="6" y="11" width="1" height="1" shape-rendering="crispEdges" fill="#EE2450"/><rect x="7" y="11" width="1" height="1" shape-rendering="crispEdges" fill="#000000"/><rect x="8" y="11" width="1" height="1" shape-rendering="crispEdges" fill="#000000"/><rect x="9" y="11" width="1" height="1" shape-rendering="crispEdges" fill="#000000"/><rect x="10" y="11" width="1" height="1" shape-rendering="crispEdges" fill="#000000"/><rect x="11" y="11" width="1" height="1" shape-rendering="crispEdges" fill="#000000"/><rect x="12" y="11" width="1" height="1" shape-rendering="crispEdges" fill="#EAD9D9"/><rect x="13" y="11" width="1" height="1" shape-rendering="crispEdges" fill="#000000"/><rect x="14" y="11" width="1" height="1" shape-rendering="crispEdges" fill="#000000"/><rect x="15" y="11" width="1" height="1" shape-rendering="crispEdges" fill="#000000"/><rect x="16" y="11" width="1" height="1" shape-rendering="crispEdges" fill="#000000"/><rect x="17" y="11" width="1" height="1" shape-rendering="crispEdges" fill="#000000"/><rect x="18" y="11" width="1" height="1" shape-rendering="crispEdges" fill="#EE2350"/><rect x="19" y="11" width="1" height="1" shape-rendering="crispEdges" fill="#EE2450"/><rect x="20" y="11" width="1" height="1" shape-rendering="crispEdges" fill="#EE234F"/><rect x="21" y="11" width="1" height="1" shape-rendering="crispEdges" fill="#EE2450"/><rect x="22" y="11" width="1" height="1" shape-rendering="crispEdges" fill="#EE2450"/><rect x="23" y="11" width="1" height="1" shape-rendering="crispEdges" fill="#EE2450"/><rect x="0" y="12" width="1" height="1" shape-rendering="crispEdges" fill="#EB1D52"/><rect x="1" y="12" width="1" height="1" shape-rendering="crispEdges" fill="#EB1D52"/><rect x="2" y="12" width="1" height="1" shape-rendering="crispEdges" fill="#EB1D52"/><rect x="3" y="12" width="1" height="1" shape-rendering="crispEdges" fill="#EB1D52"/><rect x="4" y="12" width="1" height="1" shape-rendering="crispEdges" fill="#EB1D52"/><rect x="5" y="12" width="1" height="1" shape-rendering="crispEdges" fill="#EB1D52"/><rect x="6" y="12" width="1" height="1" shape-rendering="crispEdges" fill="#000000"/><rect x="7" y="12" width="1" height="1" shape-rendering="crispEdges" fill="#000000"/><rect x="8" y="12" width="1" height="1" shape-rendering="crispEdges" fill="#690C45"/><rect x="9" y="12" width="1" height="1" shape-rendering="crispEdges" fill="#690C45"/><rect x="10" y="12" width="1" height="1" shape-rendering="crispEdges" fill="#690C45"/><rect x="11" y="12" width="1" height="1" shape-rendering="crispEdges" fill="#000000"/><rect x="12" y="12" width="1" height="1" shape-rendering="crispEdges" fill="#000000"/><rect x="13" y="12" width="1" height="1" shape-rendering="crispEdges" fill="#000000"/><rect x="14" y="12" width="1" height="1" shape-rendering="crispEdges" fill="#690C45"/><rect x="15" y="12" width="1" height="1" shape-rendering="crispEdges" fill="#690C45"/><rect x="16" y="12" width="1" height="1" shape-rendering="crispEdges" fill="#690C45"/><rect x="17" y="12" width="1" height="1" shape-rendering="crispEdges" fill="#000000"/><rect x="18" y="12" width="1" height="1" shape-rendering="crispEdges" fill="#EB1D52"/><rect x="19" y="12" width="1" height="1" shape-rendering="crispEdges" fill="#EB1D52"/><rect x="20" y="12" width="1" height="1" shape-rendering="crispEdges" fill="#EB1D52"/><rect x="21" y="12" width="1" height="1" shape-rendering="crispEdges" fill="#EB1D52"/><rect x="22" y="12" width="1" height="1" shape-rendering="crispEdges" fill="#EB1D52"/><rect x="23" y="12" width="1" height="1" shape-rendering="crispEdges" fill="#EB1D52"/><rect x="0" y="13" width="1" height="1" shape-rendering="crispEdges" fill="#E91755"/><rect x="1" y="13" width="1" height="1" shape-rendering="crispEdges" fill="#E91756"/><rect x="2" y="13" width="1" height="1" shape-rendering="crispEdges" fill="#E91756"/><rect x="3" y="13" width="1" height="1" shape-rendering="crispEdges" fill="#E91756"/><rect x="4" y="13" width="1" height="1" shape-rendering="crispEdges" fill="#E91756"/><rect x="5" y="13" width="1" height="1" shape-rendering="crispEdges" fill="#E91756"/><rect x="6" y="13" width="1" height="1" shape-rendering="crispEdges" fill="#000000"/><rect x="7" y="13" width="1" height="1" shape-rendering="crispEdges" fill="#000000"/><rect x="8" y="13" width="1" height="1" shape-rendering="crispEdges" fill="#8C0D5B"/><rect x="9" y="13" width="1" height="1" shape-rendering="crispEdges" fill="#8C0D5B"/><rect x="10" y="13" width="1" height="1" shape-rendering="crispEdges" fill="#8C0D5B"/><rect x="11" y="13" width="1" height="1" shape-rendering="crispEdges" fill="#000000"/><rect x="12" y="13" width="1" height="1" shape-rendering="crispEdges" fill="#EAD9D9"/><rect x="13" y="13" width="1" height="1" shape-rendering="crispEdges" fill="#000000"/><rect x="14" y="13" width="1" height="1" shape-rendering="crispEdges" fill="#8C0D5B"/><rect x="15" y="13" width="1" height="1" shape-rendering="crispEdges" fill="#8C0D5B"/><rect x="16" y="13" width="1" height="1" shape-rendering="crispEdges" fill="#8C0D5B"/><rect x="17" y="13" width="1" height="1" shape-rendering="crispEdges" fill="#000000"/><rect x="18" y="13" width="1" height="1" shape-rendering="crispEdges" fill="#E91756"/><rect x="19" y="13" width="1" height="1" shape-rendering="crispEdges" fill="#E91756"/><rect x="20" y="13" width="1" height="1" shape-rendering="crispEdges" fill="#E91756"/><rect x="21" y="13" width="1" height="1" shape-rendering="crispEdges" fill="#E91756"/><rect x="22" y="13" width="1" height="1" shape-rendering="crispEdges" fill="#E91756"/><rect x="23" y="13" width="1" height="1" shape-rendering="crispEdges" fill="#E91756"/><rect x="0" y="14" width="1" height="1" shape-rendering="crispEdges" fill="#E61158"/><rect x="1" y="14" width="1" height="1" shape-rendering="crispEdges" fill="#E61158"/><rect x="2" y="14" width="1" height="1" shape-rendering="crispEdges" fill="#E61158"/><rect x="3" y="14" width="1" height="1" shape-rendering="crispEdges" fill="#E61158"/><rect x="4" y="14" width="1" height="1" shape-rendering="crispEdges" fill="#E61158"/><rect x="5" y="14" width="1" height="1" shape-rendering="crispEdges" fill="#000000"/><rect x="6" y="14" width="1" height="1" shape-rendering="crispEdges" fill="#FFD926"/><rect x="7" y="14" width="1" height="1" shape-rendering="crispEdges" fill="#000000"/><rect x="8" y="14" width="1" height="1" shape-rendering="crispEdges" fill="#AD2160"/><rect x="9" y="14" width="1" height="1" shape-rendering="crispEdges" fill="#AD2160"/><rect x="10" y="14" width="1" height="1" shape-rendering="crispEdges" fill="#AD2160"/><rect x="11" y="14" width="1" height="1" shape-rendering="crispEdges" fill="#000000"/><rect x="12" y="14" width="1" height="1" shape-rendering="crispEdges" fill="#EAD9D9"/><rect x="13" y="14" width="1" height="1" shape-rendering="crispEdges" fill="#000000"/><rect x="14" y="14" width="1" height="1" shape-rendering="crispEdges" fill="#AD2160"/><rect x="15" y="14" width="1" height="1" shape-rendering="crispEdges" fill="#AD2160"/><rect x="16" y="14" width="1" height="1" shape-rendering="crispEdges" fill="#AD2160"/><rect x="17" y="14" width="1" height="1" shape-rendering="crispEdges" fill="#000000"/><rect x="18" y="14" width="1" height="1" shape-rendering="crispEdges" fill="#E61158"/><rect x="19" y="14" width="1" height="1" shape-rendering="crispEdges" fill="#E61158"/><rect x="20" y="14" width="1" height="1" shape-rendering="crispEdges" fill="#E61158"/><rect x="21" y="14" width="1" height="1" shape-rendering="crispEdges" fill="#E61158"/><rect x="22" y="14" width="1" height="1" shape-rendering="crispEdges" fill="#E61158"/><rect x="23" y="14" width="1" height="1" shape-rendering="crispEdges" fill="#E61158"/><rect x="0" y="15" width="1" height="1" shape-rendering="crispEdges" fill="#E10E5F"/><rect x="1" y="15" width="1" height="1" shape-rendering="crispEdges" fill="#E20E5F"/><rect x="2" y="15" width="1" height="1" shape-rendering="crispEdges" fill="#E20E5F"/><rect x="3" y="15" width="1" height="1" shape-rendering="crispEdges" fill="#E20E5F"/><rect x="4" y="15" width="1" height="1" shape-rendering="crispEdges" fill="#E20E5F"/><rect x="5" y="15" width="1" height="1" shape-rendering="crispEdges" fill="#E20E5F"/><rect x="6" y="15" width="1" height="1" shape-rendering="crispEdges" fill="#000000"/><rect x="7" y="15" width="1" height="1" shape-rendering="crispEdges" fill="#000000"/><rect x="8" y="15" width="1" height="1" shape-rendering="crispEdges" fill="#000000"/><rect x="9" y="15" width="1" height="1" shape-rendering="crispEdges" fill="#000000"/><rect x="10" y="15" width="1" height="1" shape-rendering="crispEdges" fill="#000000"/><rect x="11" y="15" width="1" height="1" shape-rendering="crispEdges" fill="#EAD9D9"/><rect x="12" y="15" width="1" height="1" shape-rendering="crispEdges" fill="#EAD9D9"/><rect x="13" y="15" width="1" height="1" shape-rendering="crispEdges" fill="#EAD9D9"/><rect x="14" y="15" width="1" height="1" shape-rendering="crispEdges" fill="#000000"/><rect x="15" y="15" width="1" height="1" shape-rendering="crispEdges" fill="#000000"/><rect x="16" y="15" width="1" height="1" shape-rendering="crispEdges" fill="#000000"/><rect x="17" y="15" width="1" height="1" shape-rendering="crispEdges" fill="#E20E5F"/><rect x="18" y="15" width="1" height="1" shape-rendering="crispEdges" fill="#E20E5F"/><rect x="19" y="15" width="1" height="1" shape-rendering="crispEdges" fill="#E20E5F"/><rect x="20" y="15" width="1" height="1" shape-rendering="crispEdges" fill="#E20E5F"/><rect x="21" y="15" width="1" height="1" shape-rendering="crispEdges" fill="#E20E5F"/><rect x="22" y="15" width="1" height="1" shape-rendering="crispEdges" fill="#E20E5F"/><rect x="23" y="15" width="1" height="1" shape-rendering="crispEdges" fill="#E20E5F"/><rect x="0" y="16" width="1" height="1" shape-rendering="crispEdges" fill="#D21671"/><rect x="1" y="16" width="1" height="1" shape-rendering="crispEdges" fill="#D21671"/><rect x="2" y="16" width="1" height="1" shape-rendering="crispEdges" fill="#D21671"/><rect x="3" y="16" width="1" height="1" shape-rendering="crispEdges" fill="#D21671"/><rect x="4" y="16" width="1" height="1" shape-rendering="crispEdges" fill="#D21671"/><rect x="5" y="16" width="1" height="1" shape-rendering="crispEdges" fill="#D21671"/><rect x="6" y="16" width="1" height="1" shape-rendering="crispEdges" fill="#D21671"/><rect x="7" y="16" width="1" height="1" shape-rendering="crispEdges" fill="#000000"/><rect x="8" y="16" width="1" height="1" shape-rendering="crispEdges" fill="#EAD9D9"/><rect x="9" y="16" width="1" height="1" shape-rendering="crispEdges" fill="#9A8E8B"/><rect x="10" y="16" width="1" height="1" shape-rendering="crispEdges" fill="#EAD9D9"/><rect x="11" y="16" width="1" height="1" shape-rendering="crispEdges" fill="#EAD9D9"/><rect x="12" y="16" width="1" height="1" shape-rendering="crispEdges" fill="#000000"/><rect x="13" y="16" width="1" height="1" shape-rendering="crispEdges" fill="#EAD9D9"/><rect x="14" y="16" width="1" height="1" shape-rendering="crispEdges" fill="#EAD9D9"/><rect x="15" y="16" width="1" height="1" shape-rendering="crispEdges" fill="#EAD9D9"/><rect x="16" y="16" width="1" height="1" shape-rendering="crispEdges" fill="#000000"/><rect x="17" y="16" width="1" height="1" shape-rendering="crispEdges" fill="#D21671"/><rect x="18" y="16" width="1" height="1" shape-rendering="crispEdges" fill="#D21671"/><rect x="19" y="16" width="1" height="1" shape-rendering="crispEdges" fill="#D21671"/><rect x="20" y="16" width="1" height="1" shape-rendering="crispEdges" fill="#D21671"/><rect x="21" y="16" width="1" height="1" shape-rendering="crispEdges" fill="#D21671"/><rect x="22" y="16" width="1" height="1" shape-rendering="crispEdges" fill="#D21671"/><rect x="23" y="16" width="1" height="1" shape-rendering="crispEdges" fill="#D21671"/><rect x="0" y="17" width="1" height="1" shape-rendering="crispEdges" fill="#C42084"/><rect x="1" y="17" width="1" height="1" shape-rendering="crispEdges" fill="#C42084"/><rect x="2" y="17" width="1" height="1" shape-rendering="crispEdges" fill="#C42084"/><rect x="3" y="17" width="1" height="1" shape-rendering="crispEdges" fill="#C42085"/><rect x="4" y="17" width="1" height="1" shape-rendering="crispEdges" fill="#C42084"/><rect x="5" y="17" width="1" height="1" shape-rendering="crispEdges" fill="#C42084"/><rect x="6" y="17" width="1" height="1" shape-rendering="crispEdges" fill="#C42084"/><rect x="7" y="17" width="1" height="1" shape-rendering="crispEdges" fill="#000000"/><rect x="8" y="17" width="1" height="1" shape-rendering="crispEdges" fill="#EAD9D9"/><rect x="9" y="17" width="1" height="1" shape-rendering="crispEdges" fill="#EAD9D9"/><rect x="10" y="17" width="1" height="1" shape-rendering="crispEdges" fill="#EAD9D9"/><rect x="11" y="17" width="1" height="1" shape-rendering="crispEdges" fill="#EAD9D9"/><rect x="12" y="17" width="1" height="1" shape-rendering="crispEdges" fill="#EAD9D9"/><rect x="13" y="17" width="1" height="1" shape-rendering="crispEdges" fill="#EAD9D9"/><rect x="14" y="17" width="1" height="1" shape-rendering="crispEdges" fill="#EAD9D9"/><rect x="15" y="17" width="1" height="1" shape-rendering="crispEdges" fill="#EAD9D9"/><rect x="16" y="17" width="1" height="1" shape-rendering="crispEdges" fill="#000000"/><rect x="17" y="17" width="1" height="1" shape-rendering="crispEdges" fill="#C42084"/><rect x="18" y="17" width="1" height="1" shape-rendering="crispEdges" fill="#C42084"/><rect x="19" y="17" width="1" height="1" shape-rendering="crispEdges" fill="#C42085"/><rect x="20" y="17" width="1" height="1" shape-rendering="crispEdges" fill="#C42084"/><rect x="21" y="17" width="1" height="1" shape-rendering="crispEdges" fill="#C42084"/><rect x="22" y="17" width="1" height="1" shape-rendering="crispEdges" fill="#C42084"/><rect x="23" y="17" width="1" height="1" shape-rendering="crispEdges" fill="#C42085"/><rect x="0" y="18" width="1" height="1" shape-rendering="crispEdges" fill="#B52897"/><rect x="1" y="18" width="1" height="1" shape-rendering="crispEdges" fill="#B52897"/><rect x="2" y="18" width="1" height="1" shape-rendering="crispEdges" fill="#B52897"/><rect x="3" y="18" width="1" height="1" shape-rendering="crispEdges" fill="#B52997"/><rect x="4" y="18" width="1" height="1" shape-rendering="crispEdges" fill="#B52897"/><rect x="5" y="18" width="1" height="1" shape-rendering="crispEdges" fill="#B52897"/><rect x="6" y="18" width="1" height="1" shape-rendering="crispEdges" fill="#B52897"/><rect x="7" y="18" width="1" height="1" shape-rendering="crispEdges" fill="#000000"/><rect x="8" y="18" width="1" height="1" shape-rendering="crispEdges" fill="#EAD9D9"/><rect x="9" y="18" width="1" height="1" shape-rendering="crispEdges" fill="#EAD9D9"/><rect x="10" y="18" width="1" height="1" shape-rendering="crispEdges" fill="#EAD9D9"/><rect x="11" y="18" width="1" height="1" shape-rendering="crispEdges" fill="#000000"/><rect x="12" y="18" width="1" height="1" shape-rendering="crispEdges" fill="#000000"/><rect x="13" y="18" width="1" height="1" shape-rendering="crispEdges" fill="#000000"/><rect x="14" y="18" width="1" height="1" shape-rendering="crispEdges" fill="#EAD9D9"/><rect x="15" y="18" width="1" height="1" shape-rendering="crispEdges" fill="#EAD9D9"/><rect x="16" y="18" width="1" height="1" shape-rendering="crispEdges" fill="#000000"/><rect x="17" y="18" width="1" height="1" shape-rendering="crispEdges" fill="#B52897"/><rect x="18" y="18" width="1" height="1" shape-rendering="crispEdges" fill="#B52897"/><rect x="19" y="18" width="1" height="1" shape-rendering="crispEdges" fill="#B52997"/><rect x="20" y="18" width="1" height="1" shape-rendering="crispEdges" fill="#B52897"/><rect x="21" y="18" width="1" height="1" shape-rendering="crispEdges" fill="#B52897"/><rect x="22" y="18" width="1" height="1" shape-rendering="crispEdges" fill="#B52897"/><rect x="23" y="18" width="1" height="1" shape-rendering="crispEdges" fill="#B52997"/><rect x="0" y="19" width="1" height="1" shape-rendering="crispEdges" fill="#A632AA"/><rect x="1" y="19" width="1" height="1" shape-rendering="crispEdges" fill="#A732AA"/><rect x="2" y="19" width="1" height="1" shape-rendering="crispEdges" fill="#A732AA"/><rect x="3" y="19" width="1" height="1" shape-rendering="crispEdges" fill="#A732AA"/><rect x="4" y="19" width="1" height="1" shape-rendering="crispEdges" fill="#A732AA"/><rect x="5" y="19" width="1" height="1" shape-rendering="crispEdges" fill="#A732AA"/><rect x="6" y="19" width="1" height="1" shape-rendering="crispEdges" fill="#A732AA"/><rect x="7" y="19" width="1" height="1" shape-rendering="crispEdges" fill="#A732AA"/><rect x="8" y="19" width="1" height="1" shape-rendering="crispEdges" fill="#000000"/><rect x="9" y="19" width="1" height="1" shape-rendering="crispEdges" fill="#EAD9D9"/><rect x="10" y="19" width="1" height="1" shape-rendering="crispEdges" fill="#EAD9D9"/><rect x="11" y="19" width="1" height="1" shape-rendering="crispEdges" fill="#EAD9D9"/><rect x="12" y="19" width="1" height="1" shape-rendering="crispEdges" fill="#EAD9D9"/><rect x="13" y="19" width="1" height="1" shape-rendering="crispEdges" fill="#EAD9D9"/><rect x="14" y="19" width="1" height="1" shape-rendering="crispEdges" fill="#EAD9D9"/><rect x="15" y="19" width="1" height="1" shape-rendering="crispEdges" fill="#000000"/><rect x="16" y="19" width="1" height="1" shape-rendering="crispEdges" fill="#A632AA"/><rect x="17" y="19" width="1" height="1" shape-rendering="crispEdges" fill="#A732AA"/><rect x="18" y="19" width="1" height="1" shape-rendering="crispEdges" fill="#A732AA"/><rect x="19" y="19" width="1" height="1" shape-rendering="crispEdges" fill="#A732AA"/><rect x="20" y="19" width="1" height="1" shape-rendering="crispEdges" fill="#A732AA"/><rect x="21" y="19" width="1" height="1" shape-rendering="crispEdges" fill="#A732AA"/><rect x="22" y="19" width="1" height="1" shape-rendering="crispEdges" fill="#A732AA"/><rect x="23" y="19" width="1" height="1" shape-rendering="crispEdges" fill="#A732AA"/><rect x="0" y="20" width="1" height="1" shape-rendering="crispEdges" fill="#973ABC"/><rect x="1" y="20" width="1" height="1" shape-rendering="crispEdges" fill="#973ABD"/><rect x="2" y="20" width="1" height="1" shape-rendering="crispEdges" fill="#973ABC"/><rect x="3" y="20" width="1" height="1" shape-rendering="crispEdges" fill="#973ABD"/><rect x="4" y="20" width="1" height="1" shape-rendering="crispEdges" fill="#973ABC"/><rect x="5" y="20" width="1" height="1" shape-rendering="crispEdges" fill="#973ABD"/><rect x="6" y="20" width="1" height="1" shape-rendering="crispEdges" fill="#973ABC"/><rect x="7" y="20" width="1" height="1" shape-rendering="crispEdges" fill="#973ABD"/><rect x="8" y="20" width="1" height="1" shape-rendering="crispEdges" fill="#000000"/><rect x="9" y="20" width="1" height="1" shape-rendering="crispEdges" fill="#EAD9D9"/><rect x="10" y="20" width="1" height="1" shape-rendering="crispEdges" fill="#000000"/><rect x="11" y="20" width="1" height="1" shape-rendering="crispEdges" fill="#EAD9D9"/><rect x="12" y="20" width="1" height="1" shape-rendering="crispEdges" fill="#EAD9D9"/><rect x="13" y="20" width="1" height="1" shape-rendering="crispEdges" fill="#EAD9D9"/><rect x="14" y="20" width="1" height="1" shape-rendering="crispEdges" fill="#000000"/><rect x="15" y="20" width="1" height="1" shape-rendering="crispEdges" fill="#973ABD"/><rect x="16" y="20" width="1" height="1" shape-rendering="crispEdges" fill="#973ABC"/><rect x="17" y="20" width="1" height="1" shape-rendering="crispEdges" fill="#973ABD"/><rect x="18" y="20" width="1" height="1" shape-rendering="crispEdges" fill="#973ABC"/><rect x="19" y="20" width="1" height="1" shape-rendering="crispEdges" fill="#973ABD"/><rect x="20" y="20" width="1" height="1" shape-rendering="crispEdges" fill="#973ABC"/><rect x="21" y="20" width="1" height="1" shape-rendering="crispEdges" fill="#973ABD"/><rect x="22" y="20" width="1" height="1" shape-rendering="crispEdges" fill="#973ABC"/><rect x="23" y="20" width="1" height="1" shape-rendering="crispEdges" fill="#973ABD"/><rect x="0" y="21" width="1" height="1" shape-rendering="crispEdges" fill="#8944D0"/><rect x="1" y="21" width="1" height="1" shape-rendering="crispEdges" fill="#8944D0"/><rect x="2" y="21" width="1" height="1" shape-rendering="crispEdges" fill="#8944D0"/><rect x="3" y="21" width="1" height="1" shape-rendering="crispEdges" fill="#8944D0"/><rect x="4" y="21" width="1" height="1" shape-rendering="crispEdges" fill="#8944D0"/><rect x="5" y="21" width="1" height="1" shape-rendering="crispEdges" fill="#8944D0"/><rect x="6" y="21" width="1" height="1" shape-rendering="crispEdges" fill="#8944D0"/><rect x="7" y="21" width="1" height="1" shape-rendering="crispEdges" fill="#8944D0"/><rect x="8" y="21" width="1" height="1" shape-rendering="crispEdges" fill="#000000"/><rect x="9" y="21" width="1" height="1" shape-rendering="crispEdges" fill="#EAD9D9"/><rect x="10" y="21" width="1" height="1" shape-rendering="crispEdges" fill="#EAD9D9"/><rect x="11" y="21" width="1" height="1" shape-rendering="crispEdges" fill="#000000"/><rect x="12" y="21" width="1" height="1" shape-rendering="crispEdges" fill="#000000"/><rect x="13" y="21" width="1" height="1" shape-rendering="crispEdges" fill="#000000"/><rect x="14" y="21" width="1" height="1" shape-rendering="crispEdges" fill="#8944D0"/><rect x="15" y="21" width="1" height="1" shape-rendering="crispEdges" fill="#8944D0"/><rect x="16" y="21" width="1" height="1" shape-rendering="crispEdges" fill="#8944D0"/><rect x="17" y="21" width="1" height="1" shape-rendering="crispEdges" fill="#8944D0"/><rect x="18" y="21" width="1" height="1" shape-rendering="crispEdges" fill="#8944D0"/><rect x="19" y="21" width="1" height="1" shape-rendering="crispEdges" fill="#8944D0"/><rect x="20" y="21" width="1" height="1" shape-rendering="crispEdges" fill="#8944D0"/><rect x="21" y="21" width="1" height="1" shape-rendering="crispEdges" fill="#8944D0"/><rect x="22" y="21" width="1" height="1" shape-rendering="crispEdges" fill="#8944D0"/><rect x="23" y="21" width="1" height="1" shape-rendering="crispEdges" fill="#8944D0"/><rect x="0" y="22" width="1" height="1" shape-rendering="crispEdges" fill="#7A4CE2"/><rect x="1" y="22" width="1" height="1" shape-rendering="crispEdges" fill="#7A4CE3"/><rect x="2" y="22" width="1" height="1" shape-rendering="crispEdges" fill="#7A4CE2"/><rect x="3" y="22" width="1" height="1" shape-rendering="crispEdges" fill="#7A4CE3"/><rect x="4" y="22" width="1" height="1" shape-rendering="crispEdges" fill="#7A4CE2"/><rect x="5" y="22" width="1" height="1" shape-rendering="crispEdges" fill="#7A4CE3"/><rect x="6" y="22" width="1" height="1" shape-rendering="crispEdges" fill="#7A4CE2"/><rect x="7" y="22" width="1" height="1" shape-rendering="crispEdges" fill="#7A4DE3"/><rect x="8" y="22" width="1" height="1" shape-rendering="crispEdges" fill="#000000"/><rect x="9" y="22" width="1" height="1" shape-rendering="crispEdges" fill="#EAD9D9"/><rect x="10" y="22" width="1" height="1" shape-rendering="crispEdges" fill="#EAD9D9"/><rect x="11" y="22" width="1" height="1" shape-rendering="crispEdges" fill="#EAD9D9"/><rect x="12" y="22" width="1" height="1" shape-rendering="crispEdges" fill="#000000"/><rect x="13" y="22" width="1" height="1" shape-rendering="crispEdges" fill="#7A4CE3"/><rect x="14" y="22" width="1" height="1" shape-rendering="crispEdges" fill="#7A4CE2"/><rect x="15" y="22" width="1" height="1" shape-rendering="crispEdges" fill="#7A4DE3"/><rect x="16" y="22" width="1" height="1" shape-rendering="crispEdges" fill="#7A4CE2"/><rect x="17" y="22" width="1" height="1" shape-rendering="crispEdges" fill="#7A4CE3"/><rect x="18" y="22" width="1" height="1" shape-rendering="crispEdges" fill="#7A4CE2"/><rect x="19" y="22" width="1" height="1" shape-rendering="crispEdges" fill="#7A4CE3"/><rect x="20" y="22" width="1" height="1" shape-rendering="crispEdges" fill="#7A4CE2"/><rect x="21" y="22" width="1" height="1" shape-rendering="crispEdges" fill="#7A4CE3"/><rect x="22" y="22" width="1" height="1" shape-rendering="crispEdges" fill="#7A4CE2"/><rect x="23" y="22" width="1" height="1" shape-rendering="crispEdges" fill="#7A4DE3"/><rect x="0" y="23" width="1" height="1" shape-rendering="crispEdges" fill="#6C56F6"/><rect x="1" y="23" width="1" height="1" shape-rendering="crispEdges" fill="#6C56F6"/><rect x="2" y="23" width="1" height="1" shape-rendering="crispEdges" fill="#6C56F6"/><rect x="3" y="23" width="1" height="1" shape-rendering="crispEdges" fill="#6C56F6"/><rect x="4" y="23" width="1" height="1" shape-rendering="crispEdges" fill="#6C56F6"/><rect x="5" y="23" width="1" height="1" shape-rendering="crispEdges" fill="#6C56F6"/><rect x="6" y="23" width="1" height="1" shape-rendering="crispEdges" fill="#6C56F6"/><rect x="7" y="23" width="1" height="1" shape-rendering="crispEdges" fill="#6C56F6"/><rect x="8" y="23" width="1" height="1" shape-rendering="crispEdges" fill="#000000"/><rect x="9" y="23" width="1" height="1" shape-rendering="crispEdges" fill="#EAD9D9"/><rect x="10" y="23" width="1" height="1" shape-rendering="crispEdges" fill="#EAD9D9"/><rect x="11" y="23" width="1" height="1" shape-rendering="crispEdges" fill="#EAD9D9"/><rect x="12" y="23" width="1" height="1" shape-rendering="crispEdges" fill="#000000"/><rect x="13" y="23" width="1" height="1" shape-rendering="crispEdges" fill="#6C56F6"/><rect x="14" y="23" width="1" height="1" shape-rendering="crispEdges" fill="#6C56F6"/><rect x="15" y="23" width="1" height="1" shape-rendering="crispEdges" fill="#6C56F6"/><rect x="16" y="23" width="1" height="1" shape-rendering="crispEdges" fill="#6C56F6"/><rect x="17" y="23" width="1" height="1" shape-rendering="crispEdges" fill="#6C56F6"/><rect x="18" y="23" width="1" height="1" shape-rendering="crispEdges" fill="#6C56F6"/><rect x="19" y="23" width="1" height="1" shape-rendering="crispEdges" fill="#6C56F6"/><rect x="20" y="23" width="1" height="1" shape-rendering="crispEdges" fill="#6C56F6"/><rect x="21" y="23" width="1" height="1" shape-rendering="crispEdges" fill="#6C56F6"/><rect x="22" y="23" width="1" height="1" shape-rendering="crispEdges" fill="#6C56F6"/><rect x="23" y="23" width="1" height="1" shape-rendering="crispEdges" fill="#6C56F6"/></svg>